<svg width="9" height="16" viewBox="0 0 9 16" fill="none" xmlns="http://www.w3.org/2000/svg">
<path d="M6.99999 0.999998C7.23365 0.999541 7.46008 1.08092 7.64 1.23C7.74125 1.31395 7.82496 1.41705 7.88631 1.5334C7.94766 1.64974 7.98546 1.77705 7.99753 1.90803C8.00961 2.039 7.99573 2.17107 7.95668 2.29668C7.91764 2.42228 7.8542 2.53895 7.77 2.64L3.28999 8L7.60999 13.37C7.69306 13.4723 7.75509 13.59 7.79252 13.7163C7.82996 13.8427 7.84205 13.9752 7.82811 14.1062C7.81417 14.2372 7.77447 14.3642 7.7113 14.4798C7.64813 14.5955 7.56272 14.6975 7.45999 14.78C7.35653 14.871 7.23536 14.9397 7.1041 14.9817C6.97284 15.0237 6.83431 15.0381 6.69722 15.024C6.56013 15.0099 6.42743 14.9676 6.30744 14.8998C6.18746 14.832 6.08279 14.7402 5.99999 14.63L1.16999 8.63C1.02291 8.45107 0.942507 8.22662 0.942507 7.995C0.942507 7.76337 1.02291 7.53893 1.16999 7.36L6.16999 1.36C6.27031 1.23898 6.39775 1.14332 6.54196 1.08077C6.68617 1.01822 6.84309 0.990547 6.99999 0.999998Z" fill="#EFF3F5"/>
</svg>
