<svg width="64" height="64" viewBox="0 0 64 64" fill="none" xmlns="http://www.w3.org/2000/svg">
<path d="M50.087 64H13.913C6.26087 64 0 57.7391 0 50.087V13.913C0 6.26087 6.26087 0 13.913 0H50.087C57.7391 0 64 6.26087 64 13.913V50.087C64 57.7391 57.7391 64 50.087 64Z" fill="url(#paint0_radial)"/>
<path d="M32 12.5218C38.4 12.5218 39.0957 12.5218 41.6 12.6609C43.9652 12.8 45.2174 13.2174 46.0522 13.4957C47.1652 13.9131 48 14.4696 48.8348 15.3044C49.6696 16.1391 50.2261 16.9739 50.6435 18.087C50.9217 18.9218 51.3391 20.1739 51.4783 22.5391C51.4783 24.9044 51.4783 25.6 51.4783 32C51.4783 38.4 51.4783 39.0957 51.3391 41.6C51.2 43.9652 50.7826 45.2174 50.5043 46.0522C50.087 47.1652 49.5304 48 48.6957 48.8348C47.8609 49.6696 47.0261 50.2261 45.913 50.6435C45.0783 50.9218 43.8261 51.3391 41.4609 51.4783C39.0956 51.4783 38.4 51.4783 32 51.4783C25.6 51.4783 24.9043 51.4783 22.4 51.3391C20.0348 51.2 18.7826 50.7826 17.9478 50.5044C16.8348 50.087 16 49.5304 15.1652 48.6957C14.3304 47.8609 13.7739 47.0261 13.3565 45.9131C13.0783 45.0783 12.6609 43.8261 12.5217 41.4609C12.5217 39.0957 12.5217 38.4 12.5217 32C12.5217 25.6 12.5217 24.9044 12.6609 22.4C12.8 20.0348 13.2174 18.7826 13.4957 17.9478C13.913 16.8348 14.4696 16 15.3043 15.1652C16.1391 14.3304 16.9739 13.7739 18.087 13.3565C18.9217 13.0783 20.1739 12.6609 22.5391 12.5218C24.9043 12.5218 25.6 12.5218 32 12.5218ZM32 8.34784C25.6 8.34784 24.7652 8.34784 22.2609 8.48697C19.7565 8.6261 18.087 9.04349 16.5565 9.60001C15.0261 10.1565 13.6348 10.9913 12.3826 12.3826C11.1304 13.7739 10.2956 15.0261 9.6 16.5565C9.04348 18.087 8.62609 19.7565 8.48696 22.2609C8.34782 24.7652 8.34782 25.6 8.34782 32C8.34782 38.4 8.34782 39.2348 8.48696 41.7391C8.62609 44.2435 9.04348 45.9131 9.6 47.4435C10.1565 48.9739 10.9913 50.3652 12.3826 51.6174C13.6348 52.8696 15.0261 53.7044 16.5565 54.4C18.087 54.9565 19.7565 55.3739 22.2609 55.5131C24.7652 55.6522 25.6 55.6522 32 55.6522C38.4 55.6522 39.2348 55.6522 41.7391 55.5131C44.2435 55.3739 45.913 54.9565 47.4435 54.4C48.9739 53.8435 50.3652 53.0087 51.6174 51.6174C52.8696 50.3652 53.7043 48.9739 54.4 47.4435C54.9565 45.9131 55.3739 44.2435 55.513 41.7391C55.6522 39.2348 55.6522 38.4 55.6522 32C55.6522 25.6 55.6522 24.7652 55.513 22.2609C55.3739 19.7565 54.9565 18.087 54.4 16.5565C53.8435 15.0261 53.0087 13.6348 51.6174 12.3826C50.2261 11.1304 48.9739 10.2957 47.4435 9.60001C45.913 9.04349 44.2435 8.6261 41.7391 8.48697C39.2348 8.34784 38.4 8.34784 32 8.34784Z" fill="white"/>
<path d="M31.9999 19.4783C25.0434 19.4783 19.4782 25.0435 19.4782 32C19.4782 38.9565 25.0434 44.5218 31.9999 44.5218C38.9565 44.5218 44.5217 38.9565 44.5217 32C44.5217 25.0435 38.9565 19.4783 31.9999 19.4783ZM31.9999 40.3478C27.4086 40.3478 23.6521 36.5913 23.6521 32C23.6521 27.4087 27.4086 23.6522 31.9999 23.6522C36.5912 23.6522 40.3478 27.4087 40.3478 32C40.3478 36.5913 36.5912 40.3478 31.9999 40.3478Z" fill="white"/>
<path d="M44.5217 22.2608C46.0585 22.2608 47.3043 21.015 47.3043 19.4782C47.3043 17.9414 46.0585 16.6956 44.5217 16.6956C42.9849 16.6956 41.7391 17.9414 41.7391 19.4782C41.7391 21.015 42.9849 22.2608 44.5217 22.2608Z" fill="white"/>
<defs>
<radialGradient id="paint0_radial" cx="0" cy="0" r="1" gradientUnits="userSpaceOnUse" gradientTransform="translate(13.2298 76.933) rotate(-49.945) scale(96.8981 64.0094)">
<stop offset="0.073" stop-color="#EACC7B"/>
<stop offset="0.184" stop-color="#ECAA59"/>
<stop offset="0.307" stop-color="#EF802E"/>
<stop offset="0.358" stop-color="#EF6D3A"/>
<stop offset="0.46" stop-color="#F04B50"/>
<stop offset="0.516" stop-color="#F03E58"/>
<stop offset="0.689" stop-color="#DB359E"/>
<stop offset="0.724" stop-color="#CE37A4"/>
<stop offset="0.789" stop-color="#AC3CB4"/>
<stop offset="0.877" stop-color="#7544CF"/>
<stop offset="0.98" stop-color="#2B4FF2"/>
</radialGradient>
</defs>
</svg>
