<svg width="64" height="64" viewBox="0 0 64 64" fill="none" xmlns="http://www.w3.org/2000/svg">
<path d="M50.087 64H13.913C6.26087 64 0 57.7391 0 50.087V13.913C0 6.26087 6.26087 0 13.913 0H50.087C57.7391 0 64 6.26087 64 13.913V50.087C64 57.7391 57.7391 64 50.087 64Z" fill="#1976D2"/>
<path d="M55.5274 20.1147C55.618 19.8205 55.6614 19.5478 55.6496 19.3044C55.62 18.5993 55.1292 18.087 53.9742 18.087H48.8142C47.5113 18.087 46.9102 18.8661 46.5594 19.6472C46.5594 19.6472 43.3427 26.1899 39.6353 30.5044C38.433 31.7529 37.822 31.7218 37.1716 31.7218C36.8227 31.7218 35.9417 31.3049 35.9417 30.1615V20.0621C35.9417 18.7103 35.6007 18.087 34.4989 18.087H25.3358C24.5336 18.087 24.1157 18.7103 24.1157 19.3355C24.1157 20.6347 25.8857 20.9464 26.0867 24.5869V31.6438C26.0867 33.3579 25.7852 33.6696 25.1347 33.6696C23.3805 33.6696 19.9274 27.8261 17.6154 20.1673C17.1148 18.6596 16.6141 18.087 15.3113 18.087H10.102C8.59814 18.087 8.34782 18.8155 8.34782 19.5946C8.34782 20.999 9.53042 28.5916 15.9854 37.3218C20.6665 43.6522 26.8337 47.3044 32.2934 47.3044C35.6007 47.3044 35.9397 46.4726 35.9397 45.1734V39.3845C35.9417 37.8243 36.3023 37.5652 37.3549 37.5652C38.1058 37.5652 39.6373 38.0522 42.5937 41.4609C46.0035 45.3916 46.6224 47.3044 48.5777 47.3044H53.7377C54.9361 47.3044 55.6239 46.8077 55.6515 45.8435C55.6574 45.5981 55.622 45.3234 55.5412 45.0176C55.1588 43.8957 53.4046 41.1531 51.2168 38.5391C50.0047 37.0919 48.8083 35.6583 48.2584 34.8792C47.8898 34.3708 47.7498 34.0124 47.7676 33.6696C47.7853 33.3092 47.9745 32.9664 48.2584 32.4873C48.2071 32.4873 54.8769 23.2331 55.5274 20.1147Z" fill="white"/>
</svg>
