<svg width="64" height="64" viewBox="0 0 64 64" fill="none" xmlns="http://www.w3.org/2000/svg">
<path d="M64 55.1111C64 60.0213 60.0213 64 55.1111 64H8.88889C3.98044 64 0 60.0213 0 55.1111V8.88889C0 3.97867 3.98044 0 8.88889 0H55.1111C60.0213 0 64 3.97867 64 8.88889V55.1111Z" fill="#F44336"/>
<path d="M54.2202 34.6631C53.7295 32.9156 52.2842 31.5378 50.4478 31.0702C47.1215 30.2222 31.9998 30.2222 31.9998 30.2222C31.9998 30.2222 16.878 30.2222 13.5518 31.072C11.7171 31.5396 10.27 32.9156 9.77932 34.6649C8.88866 37.8329 8.88866 44.4445 8.88866 44.4445C8.88866 44.4445 8.88866 51.056 9.77932 54.2258C10.27 55.9733 11.7153 57.3511 13.5518 57.8187C16.878 58.6667 31.9998 58.6667 31.9998 58.6667C31.9998 58.6667 47.1198 58.6667 50.4478 57.8169C52.2824 57.3493 53.7295 55.9733 54.2202 54.224C55.1109 51.056 55.1109 44.4445 55.1109 44.4445C55.1109 44.4445 55.1109 37.8329 54.2202 34.6631Z" fill="white"/>
<path d="M18.37 55.1111H15.4082V36.72H12.4447V33.7778H21.3336V36.72H18.37V55.1111ZM30.2225 55.1111H27.5558L27.2589 53.0987C26.0891 54.3627 24.6971 55.1111 23.6145 55.1111C22.6669 55.1111 22.0002 54.7004 21.6731 53.9502C21.4811 53.4809 21.3336 52.7769 21.3336 51.7191V38.2222H24.2971V52.0124C24.3718 52.4391 24.6829 52.5991 25.0669 52.5991C25.6589 52.5991 26.6082 51.9538 27.2589 51.1004V38.2222H30.2225V55.1111ZM51.5558 47.4009V42.5991C51.5558 41.2178 51.2145 40.2204 50.6082 39.5733C49.794 38.6915 48.6225 38.2222 47.1558 38.2222C45.6589 38.2222 44.5033 38.6915 43.6589 39.5733C43.0225 40.2187 42.6669 41.2764 42.6669 42.6578V50.8231C42.6669 52.1884 43.0669 53.1573 43.6891 53.7902C44.5336 54.6702 45.6891 55.1111 47.2305 55.1111C48.7558 55.1111 49.9558 54.656 50.7558 53.7155C51.1113 53.3049 51.3478 52.8338 51.4527 52.32C51.4669 52.0853 51.5558 51.4542 51.5558 50.7058H48.5922V51.8809C48.5922 52.5564 47.9256 53.1147 47.1114 53.1147C46.2971 53.1147 45.6305 52.5564 45.6305 51.8809V47.4009H51.5558ZM45.6305 41.5858C45.6305 40.896 46.2971 40.352 47.1114 40.352C47.9256 40.352 48.5922 40.896 48.5922 41.5858V45.36H45.6287V41.5858H45.6305ZM40.5034 39.9858C40.1336 38.8373 39.2287 38.2062 38.1034 38.1902C36.6669 38.176 36.0731 38.9262 34.962 40.2204V33.7778H32.0002V55.1111H34.6669L34.9638 53.2729C35.8971 54.4195 37.1114 55.1111 38.1034 55.1111C39.2287 55.1111 40.1922 54.5227 40.562 53.3742C40.7398 52.7555 40.8731 52.1831 40.8874 50.8871V43.1644C40.8891 41.7084 40.6971 40.6044 40.5034 39.9858ZM37.9256 50.5067C37.9256 52.0515 37.57 52.5813 36.77 52.5813C36.3114 52.5813 35.4367 52.272 34.962 51.8009V41.6924C35.4367 41.2213 36.3096 40.7662 36.77 40.7662C37.57 40.7662 37.9256 41.2515 37.9256 42.7964V50.5067Z" fill="#F44336"/>
<path d="M16 5.33331L19.2622 5.33509L21.3724 15.4898H21.5769L23.5822 5.33687L26.8818 5.33509L23.1111 19.3653V26.6666H19.8702L19.8649 19.76L16 5.33331ZM26.9138 14.368C26.9138 13.1733 27.3031 12.2186 28.0818 11.5129C28.8587 10.8035 29.9022 10.4462 31.2178 10.4444C32.4178 10.4444 33.3956 10.816 34.16 11.5644C34.9227 12.3075 35.3067 13.2711 35.3067 14.448L35.312 22.4213C35.312 23.7404 34.9404 24.7786 34.192 25.536C33.4436 26.2898 32.416 26.6666 31.0987 26.6666C29.8293 26.6666 28.8213 26.2738 28.0551 25.5004C27.2942 24.7271 26.9173 23.6818 26.9156 22.3715L26.9102 14.3662L26.9138 14.368ZM29.8933 22.6595C29.8933 23.0791 29.9947 23.4115 30.2098 23.6426C30.4142 23.8702 30.7058 23.9858 31.0898 23.9858C31.4827 23.9858 31.7902 23.8684 32.0213 23.6284C32.2507 23.3991 32.3698 23.0702 32.3698 22.656L32.3644 14.2453C32.3644 13.9111 32.2418 13.6373 32.0071 13.4293C31.7742 13.2231 31.4649 13.1182 31.0844 13.1182C30.7307 13.1182 30.4427 13.2249 30.2204 13.4311C30 13.6391 29.8898 13.9129 29.8898 14.2471L29.8933 22.6595ZM46.2222 10.6666V26.6666H43.6889L43.2853 24.7111C42.7431 25.3475 42.1796 25.8311 41.5911 26.16C41.008 26.4906 40.4391 26.6666 39.888 26.6666C39.2053 26.6666 38.6951 26.432 38.3484 25.9662C38.0018 25.5058 37.8311 24.8106 37.8311 23.8791L37.824 10.6666H40.7627L40.7698 22.8C40.7698 23.1626 40.8338 23.4311 40.9582 23.5982C41.0756 23.7582 41.2836 23.8471 41.5538 23.8471C41.7742 23.8471 42.048 23.7369 42.3716 23.5164C42.7058 23.2995 43.008 23.0169 43.2818 22.6791L43.2782 10.6666H46.2222Z" fill="white"/>
</svg>
